Coordinates
version=1
nRows=13
nColumns=22
inDegrees=yes

Units are S.I. units (second, meters, Newtons, ...)
If the header above contains a line with 'inDegrees', this indicates whether rotational values are in degrees (yes) or radians (no).

endheader
time	pelvis_tilt	pelvis_list	pelvis_rotation	pelvis_tx	pelvis_ty	pelvis_tz	hip_flexion_r	hip_adduction_r	hip_rotation_r	knee_angle_r	ankle_angle_r	subtalar_angle_r	hip_flexion_l	hip_adduction_l	hip_rotation_l	knee_angle_l	ankle_angle_l	subtalar_angle_l	lumbar_extension	lumbar_bending	lumbar_rotation
      2.81000000	     -4.48067963	      8.16347412	    -38.90881823	     -0.02254886	      0.96979688	      0.01488402	     31.30358722	     -2.21581406	     -0.55484008	    -69.62123905	      7.52160557	    -10.47605236	     24.87047628	      3.18358778	      0.04173768	    -26.34943052	     17.29653834	      4.49842645	     -2.28291411	     -1.73589962	      3.92188890
      2.82000000	     -4.42688116	      8.11988106	    -39.27663349	     -0.01685957	      0.97059599	      0.01887604	     32.21966343	     -2.08864147	     -0.80086750	    -68.90130488	      8.28244595	     -9.68499286	     24.15840179	      3.11261610	     -0.29095199	    -26.02980005	     17.64618306	      4.28515298	     -2.50472146	     -1.66341071	      3.35174903
      2.83000000	     -4.36078527	      8.09758716	    -39.60753881	     -0.01114755	      0.97128169	      0.02282784	     33.08722090	     -2.06214106	     -1.14006947	    -67.99781678	      9.03484761	     -8.84974956	     23.46171399	      3.08293527	     -0.63710033	    -25.72301672	     18.01566492	      4.06520530	     -2.71819131	     -1.61385193	      2.76595038
      2.84000000	     -4.29066476	      8.07508802	    -39.92669463	     -0.00542193	      0.97189710	      0.02680268	     33.88464937	     -2.09062874	     -1.54826937	    -66.89998012	      9.80371061	     -8.12700966	     22.75300709	      3.07144240	     -0.94362849	    -25.40126059	     18.35428092	      3.85081798	     -2.92514957	     -1.56138668	      2.19703380
      2.85000000	     -4.21586516	      8.07530815	    -40.23911205	      0.00030223	      0.97239234	      0.03080070	     34.64017163	     -2.19408418	     -2.02336771	    -65.63777489	     10.54080420	     -7.53514511	     22.06202263	      3.08717140	     -1.26227000	    -25.08925090	     18.70410314	      3.63911301	     -3.11264403	     -1.52914144	      1.64843308
      2.86000000	     -4.13442128	      8.08600184	    -40.55218700	      0.00601687	      0.97278726	      0.03484264	     35.34225427	     -2.35675736	     -2.56630015	    -64.21914681	     11.23058581	     -7.08138654	     21.37738928	      3.12122560	     -1.58399843	    -24.78626328	     19.05637859	      3.42430808	     -3.29313584	     -1.50775487	      1.13618640
      2.87000000	     -4.05361095	      8.10834535	    -40.87388297	      0.01170097	      0.97307454	      0.03895909	     35.99691136	     -2.55803022	     -3.16371993	    -62.65316589	     11.86811725	     -6.79298682	     20.70518876	      3.16603054	     -1.90552286	    -24.49236890	     19.40950270	      3.21611947	     -3.45716017	     -1.49662287	      0.66900096
      2.88000000	     -3.96810338	      8.13512640	    -41.21233082	      0.01735512	      0.97326742	      0.04317820	     36.59509845	     -2.78477581	     -3.81189018	    -60.95210700	     12.45055892	     -6.62619668	     20.03618117	      3.21679232	     -2.23475746	    -24.21136232	     19.77111627	      2.99919834	     -3.61481785	     -1.49317615	      0.25561776
      2.89000000	     -3.88623879	      8.16490829	    -41.56965462	      0.02295533	      0.97336198	      0.04752982	     37.14134534	     -3.01525205	     -4.50358240	    -59.12320631	     12.96878320	     -6.57483518	     19.37679570	      3.26448617	     -2.56623731	    -23.94517977	     20.13495424	      2.78860227	     -3.75796088	     -1.49504481	     -0.10245702
      2.90000000	     -3.80031438	      8.19448296	    -41.95406313	      0.02849744	      0.97336873	      0.05202503	     37.62923874	     -3.24202606	     -5.23522781	    -57.18002063	     13.42353559	     -6.60245767	     18.71974999	      3.30944424	     -2.91391754	    -23.69673957	     20.51308708	      2.56847578	     -3.89816254	     -1.50468299	     -0.39468451
      2.91000000	     -3.71694359	      8.21835829	    -42.36239216	      0.03397473	      0.97328593	      0.05668965	     38.06056761	     -3.44866710	     -6.01115754	    -55.13781950	     13.81021975	     -6.68030920	     18.06426395	      3.34185419	     -3.27374292	    -23.46327913	     20.89981408	      2.35064662	     -4.03067621	     -1.51674360	     -0.62837115
      2.92000000	     -3.63232849	      8.24245563	    -42.79615048	      0.03938998	      0.97311638	      0.06150417	     38.43896678	     -3.63131543	     -6.81323807	    -53.00670715	     14.12606968	     -6.77754334	     17.41107764	      3.37091418	     -3.65022065	    -23.24309935	     21.29878408	      2.13574741	     -4.15634485	     -1.53112705	     -0.80829594
      2.93000000	     -3.54883237	      8.25974650	    -43.24913500	      0.04473113	      0.97286169	      0.06650440	     38.76284563	     -3.78521929	     -7.66878029	    -50.80473466	     14.35622904	     -6.85767716	     16.76072031	      3.38689146	     -4.04519676	    -23.04546964	     21.70164838	      1.92990334	     -4.27647942	     -1.55377873	     -0.92668325
